<svg xmlns="http://www.w3.org/2000/svg" stroke="null" vector-effect="non-scaling-stroke" viewBox="0 0 130 125"><defs vector-effect="non-scaling-stroke"><linearGradient stroke="null" x1="0" y1=".5" x2="1" y2=".5" id="a" vector-effect="non-scaling-stroke"><stop offset="0%" stop-color="#bf00bf" stop-opacity=".76" vector-effect="non-scaling-stroke"/><stop offset="100%" stop-color="#bf00bf" stop-opacity=".76" vector-effect="non-scaling-stroke"/></linearGradient><linearGradient stroke="null" x1="0" y1=".5" x2="1" y2=".5" id="b" vector-effect="non-scaling-stroke"><stop offset="0%" stop-color="#fcfcfc" vector-effect="non-scaling-stroke"/><stop offset="100%" stop-color="#fcfcfc" vector-effect="non-scaling-stroke"/></linearGradient></defs><path fill="none" d="M-1-1h132v127H-1z"/><g><path fill="none" d="M14.404 71.354c44.044-.334 57.148-.334 101.192 0" vector-effect="non-scaling-stroke"/><path class="cls-1" d="M126.466 78.707a18.752 19.045 0 01-18.653 18.944H41.112l-16.265 19.777a2.636 2.677 0 01-4.65-1.818l.683-17.883A18.752 19.045 0 012.228 78.783v-48.99a18.752 19.045 0 0118.54-18.766h87.045a18.777 19.07 0 0118.653 18.767v48.913z" fill="url('#a')"/><path transform="translate(526 249) scale(.3276)" d="M-1512.571-647.239q0 5.765-1.39 10.792-1.378 5.044-3.726 9.236-2.336 4.209-5.42 7.566t-6.473 5.633q-3.389 2.276-6.915 3.521-3.515 1.228-6.704 1.228h-.305v-1.588q4.62-.885 8.967-4.438 4.336-3.57 7.704-9.007t5.4-12.298q2.03-6.878 2.03-14.395 0-4.077-.694-7.402-.694-3.324-2.052-5.682-1.368-2.358-3.42-3.636-2.053-1.277-4.78-1.277-5.504 0-9.945 3.636-4.442 3.635-7.894 9.678-3.442 6.043-5.936 13.87-2.484 7.844-4.105 16.31-1.62 8.483-2.39 16.999-.768 8.515-.768 15.786 0 5.847.485 11.791.484 5.96 1.568 11.48 1.073 5.518 2.778 10.35 1.695 4.846 4.084 8.45 2.39 3.586 5.526 5.665 3.126 2.08 7.136 2.08 2.778 0 5.347-1.588 2.568-1.605 4.83-4.242 2.263-2.636 4.084-5.993 1.832-3.374 3.116-6.878l.61.475q-.873 4.961-2.978 9.76t-5.01 8.515q-2.905 3.717-6.326 5.994-3.41 2.276-6.852 2.276-4.578 0-8.283-2.194-3.694-2.211-6.6-6.076-2.904-3.881-5.01-9.121t-3.493-11.349q-1.39-6.124-2.053-12.806-.673-6.665-.673-13.395 0-8.794 1.178-18.39 1.19-9.58 3.495-18.866 2.315-9.268 5.683-17.637 3.368-8.351 7.736-14.705 4.368-6.354 9.683-10.071 5.326-3.718 11.494-3.718 3.852 0 7.04 1.72 3.18 1.72 5.474 4.994 2.284 3.276 3.515 8.041 1.232 4.75 1.232 10.906zm44.56 72.611l.411.312q-.874 2.882-2.137 5.715-1.252 2.85-2.8 5.125-1.536 2.277-3.388 3.718-1.853 1.44-3.958 1.44-2.315 0-4.01-1.882-1.694-1.884-2.884-4.962-1.178-3.079-1.947-7.075-.768-3.995-1.284-8.237-.516-4.241-.852-8.466-.327-4.242-.642-7.762-1.642 3.357-2.979 7.123-1.337 3.75-2.568 7.795-1.231 4.029-2.42 8.188-1.18 4.16-2.516 8.237-.306.884-.61 1.883-.316 1-.727 1.835-.41.835-.979 1.408-.558.557-1.336.557-.716 0-1.2-.41-.495-.393-.821-.999-.337-.59-.516-1.31-.179-.72-.284-1.359-.621-3.439-1.105-8.646-.484-5.192-.853-11.103-.358-5.928-.537-12.037-.179-6.124-.179-11.315 0-7.435.621-15.312.61-7.877 1.927-15.393 1.305-7.517 3.336-14.198 2.031-6.665 4.81-11.71 2.768-5.043 6.346-7.99 3.568-2.965 7.989-2.965 2.926 0 4.62 2.686 1.706 2.67 1.706 7.631 0 7.435-1.674 14.264-1.673 6.845-4.263 13.084-2.6 6.24-5.757 11.79-3.168 5.552-6.094 10.268l-.663-.786q1.284-2.243 2.747-5.567 1.463-3.308 2.874-7.19 1.42-3.88 2.704-8.155 1.285-4.29 2.253-8.433.979-4.16 1.547-8.04.568-3.882.568-7.075 0-1.687-.21-3.21-.2-1.507-.716-2.67-.516-1.162-1.315-1.833-.79-.688-1.927-.688-2.262 0-4.241 2.718-1.979 2.719-3.62 7.32-1.643 4.602-2.906 10.677-1.252 6.076-2.157 12.708-.895 6.632-1.358 13.428-.463 6.796-.463 12.954v8.4q0 4.242.126 8.876t.463 9.842q.337 5.192.948 11.267 2.262-9.121 4.778-17.866 2.526-8.761 5.452-16.032.41-1.048.852-2.08.432-1.048.948-1.883.515-.835 1.126-1.392.62-.573 1.337-.573.873 0 1.389.77.516.753.82 1.883.306 1.113.443 2.39l.231 2.326q.2 2.309.463 5.994.253 3.684.61 7.876.359 4.193.906 8.434.537 4.241 1.379 7.631.852 3.406 2.031 5.568 1.19 2.162 2.831 2.162 1.337 0 2.674-.885t2.568-2.243q1.231-1.36 2.284-3.112 1.052-1.768 1.779-3.439zm21.584-29.837q0 .885-.41 1.572-.41.672-.98.672-.462 0-.978-.442t-1.158-1q-.642-.556-1.484-.998-.852-.442-1.926-.442-2.526 0-4.504 2.44-1.98 2.44-3.337 6.043t-2.084 7.68q-.716 4.077-.716 7.353 0 2.309.253 4.52.263 2.194.905 3.995.642 1.801 1.768 2.882 1.137 1.081 2.884 1.081 1.842 0 3.547-1.08 1.695-1.082 3.179-2.85.052-2.555.547-5.388.484-2.85 1.253-5.6t1.778-5.24q1-2.473 2.074-4.39l.673.64q-.568 2.718-.82 5.583-.264 2.883-.264 5.683 0 2.882.316 5.437.305 2.554 1.073 4.438t2.105 2.964q1.337 1.08 3.453 1.08 2.568 0 4.725-1.85 2.158-1.834 3.8-4.634l.41.327q-.926 2.8-2.41 5.355-1.494 2.555-3.315 4.602-1.832 2.03-3.884 3.226-2.052 1.212-4.063 1.212-2.82 0-4.62-2.522-1.8-2.522-2.473-6.354-2.158 3.357-4.8 5.633-2.652 2.276-5.578 2.276-2.158 0-3.831-1.244-1.663-1.228-2.8-3.308-1.126-2.08-1.715-4.93-.59-2.832-.59-5.944 0-3.602.737-7.402.747-3.799 2.063-7.484 1.305-3.668 3.105-6.943 1.8-3.291 3.936-5.764 2.126-2.473 4.494-3.914 2.358-1.441 4.831-1.441.569 0 1.39.196t1.589.688q.768.475 1.315 1.36.537.867.537 2.226zm47.225 30.149l.316.327q-1.137 2.948-2.653 5.519-1.515 2.554-3.336 4.47-1.831 1.916-3.936 2.997t-4.368 1.081q-3.337 0-5.884-1.752-2.547-1.769-4.389-4.766-1.852-2.996-3.084-6.992-1.241-3.996-1.957-8.352t-1.032-8.925q-.305-4.552-.305-8.712 0-3.832.21-7.877.2-4.044.611-8.27-1.59.082-3.105.082h-3.01q-.979 0-2.21-.081t-2.316-.64q-1.073-.572-1.789-1.686-.726-1.113-.726-3.275 0-1.195.284-1.916.284-.72.768-1.08.495-.361 1.137-.492.642-.115 1.305-.115.779 0 3.652.41 2.874.393 6.936.868 1.284-9.433 3.316-18.554 2.031-9.105 4.6-16.622h.715q-1.642 8.712-2.895 17.588-1.263 8.876-1.884 17.997 3.758.393 7.736.671 3.99.279 7.789.279 5.6 0 9.094-.148 3.494-.163 5.504-.409 2.358-.311 3.547-.639l.2 1.36q-3.084 1.113-7.041 2.112-3.958.999-8.43 1.769-4.463.753-9.252 1.31-4.779.573-9.504.884-.106 1.605-.106 3.242v3.243q0 3.832.232 8.466t.852 9.318q.621 4.684 1.674 9.122 1.052 4.437 2.768 7.827 1.726 3.406 4.136 5.486 2.421 2.08 5.705 2.08 3.031 0 5.473-2.08 2.442-2.08 4.652-5.125zm74.06-74.2q0 1.834-.411 4.356t-1.21 4.88q-.8 2.358-1.98 3.996-1.178 1.637-2.725 1.637-.821 0-1.053-.884-.231-.868-.231-1.916 0-3.357.358-6.632.368-3.275.368-6.796 0-3.44-.368-6.763-.358-3.308-1.305-5.88-.948-2.554-2.674-4.11-1.726-1.555-4.389-1.555-3.862 0-7.125 2.8t-5.957 7.598q-2.695 4.798-4.884 11.152-2.19 6.354-3.884 13.461-1.694 7.124-2.905 14.559-1.2 7.434-2 14.394t-1.157 13.003q-.358 6.026-.358 10.35 0 3.831.232 8.154.231 4.324.82 8.516t1.569 8.04q.979 3.832 2.463 6.747 1.494 2.915 3.578 4.635 2.074 1.72 4.852 1.72 4.063 0 7.2-2.474t5.578-6.632q2.43-4.16 4.21-9.563 1.768-5.388 3.105-11.152-.253-2.8-.411-5.634-.147-2.833-.147-5.633 0-1.932.094-4.765.106-2.834.369-6.076.252-3.242.715-6.55.464-3.325 1.127-6.321.673-2.997 1.6-5.274.926-2.292 2.157-3.488.821-.72 1.663-1.31.853-.606 1.831-.606.716 0 1.158.475.432.492.432 1.605 0 .72-.127 1.392-.126.688-.336 1.408-1.895 7.68-2.768 15.754-.874 8.073-.874 16.31 0 2.883.231 6.96t.643 8.63q.41 4.553 1.02 9.351.621 4.798 1.421 9.122.79 4.323 1.747 7.827.948 3.521 2.074 5.6l-.926.492q-4.516-7.123-7.578-16.032-3.053-8.925-4.494-18.685-2.421 8.876-5.863 16.245-1.537 3.111-3.442 5.715-1.905 2.588-4.062 4.52-2.158 1.916-4.547 2.948-2.39 1.048-5.01 1.048-3.8 0-6.704-2.08-2.905-2.08-5.01-5.519t-3.526-7.91q-1.41-4.486-2.232-9.317-.82-4.848-1.178-9.728-.358-4.863-.358-9.023 0-9.285 1.105-19.602t3.21-20.42q2.105-10.12 5.21-19.357 3.115-9.236 7.125-16.261 4-7.042 8.883-11.201t10.536-4.16q3.442 0 6.294 1.72 2.852 1.72 4.915 4.88 2.053 3.16 3.179 7.549 1.136 4.405 1.136 9.76zm39.416 57.643q0 4.487-1.105 9.318-1.105 4.848-3.063 8.843-1.947 3.996-4.642 6.6-2.705 2.587-5.894 2.587-1.126 0-2.284-.59-1.157-.605-2.105-1.768-.947-1.146-1.547-2.751-.59-1.605-.59-3.603 0-.95.516-1.637.516-.672 1.137-.672.769 0 1.305 1.196t1.18 2.603q.641 1.392 1.546 2.588.895 1.195 2.39 1.195 1.852 0 3.283-1.948 1.442-1.966 2.421-4.766.979-2.8 1.495-5.944.505-3.16.505-5.568 0-3.03-.505-5.994-.516-2.964-1.569-5.24-1.063-2.276-2.673-3.668-1.62-1.409-3.778-1.409-2.516 0-4.242 2.637t-2.831 6.763q-1.105 4.11-1.695 9.236-.59 5.11-.873 10.104-.285 5.011-.327 9.236-.052 4.242-.052 6.73 0 11.595-.41 20.897-.411 9.317-1.138 16.834-.715 7.517-1.694 13.314t-2.105 10.366h-1.284v-38.222q0-17.522-.41-34.831t-.411-34.898q0-1.85.484-3.078.484-1.245 1.284-2.047t1.821-1.114q1.031-.327 2.115-.327.306 0 1.021.213.727.196.727.917 0 5.6-.053 11.037-.053 5.437-.158 10.955.716-3.848 1.853-7.958 1.126-4.127 2.778-7.484 1.642-3.357 3.905-5.519 2.252-2.161 5.294-2.161 2.568 0 4.494 1.604 1.926 1.605 3.231 4.242 1.316 2.636 1.98 6.075.673 3.44.673 7.107zm37.363 0q0 4.487-1.106 9.318-1.105 4.848-3.062 8.843-1.947 3.996-4.642 6.6-2.705 2.587-5.894 2.587-1.126 0-2.284-.59-1.158-.605-2.105-1.768-.947-1.146-1.547-2.751-.59-1.605-.59-3.603 0-.95.516-1.637.516-.672 1.137-.672.768 0 1.305 1.196t1.179 2.603q.642 1.392 1.547 2.588.895 1.195 2.39 1.195 1.852 0 3.283-1.948 1.442-1.966 2.42-4.766.98-2.8 1.495-5.944.506-3.16.506-5.568 0-3.03-.506-5.994-.515-2.964-1.568-5.24-1.063-2.276-2.673-3.668-1.621-1.409-3.779-1.409-2.515 0-4.241 2.637-1.726 2.637-2.831 6.763-1.106 4.11-1.695 9.236-.59 5.11-.874 10.104-.284 5.011-.326 9.236-.052 4.242-.052 6.73 0 11.595-.411 20.897-.41 9.317-1.137 16.834-.715 7.517-1.694 13.314t-2.105 10.366h-1.284v-38.222q0-17.522-.41-34.831t-.411-34.898q0-1.85.484-3.078.484-1.245 1.284-2.047t1.82-1.114q1.032-.327 2.116-.327.306 0 1.021.213.726.196.726.917 0 5.6-.052 11.037-.053 5.437-.158 10.955.716-3.848 1.852-7.958 1.127-4.127 2.779-7.484 1.642-3.357 3.905-5.519 2.252-2.161 5.294-2.161 2.568 0 4.494 1.604 1.926 1.605 3.231 4.242 1.316 2.636 1.979 6.075.674 3.44.674 7.107z" fill="url('#b')"/></g></svg>