<svg height="512" width="512" viewBox="0 0 512 512" xmlns="http://www.w3.org/2000/svg"><linearGradient id="a" gradientUnits="userSpaceOnUse" x1="432.334" x2="198.334" y1="502.645" y2="192.646"><stop offset="0" stop-color="#d2deff" stop-opacity="0"/><stop offset="1" stop-color="#b7c5ff"/></linearGradient><path d="M501.873 153.583c-22.357-56.888-91.226-91.003-149.556-68.427-66.582 25.77-44.506 131.673-104.983 153.088-32.669 11.568-80.962-31.644-113.969-38.271-60.821-12.21-115.881 30.705-129.439 90.134-13.832 60.63 8.353 141.61 74.967 158.066 79.35 19.602 120.683-51.729 187.249-72.211 68.31-21.019 144.263 28.622 200.814-31.776 41.78-44.62 57.055-134.271 34.917-190.603z" fill="url(#a)"/><path d="M476.847 178.593c0-39.497-32.019-71.517-71.517-71.517-30.6 0-56.699 19.225-66.91 46.25H79.812c-11.046 0-20 8.954-20 20v221.41c0 11.046 8.954 20 20 20h352.375c11.046 0 20-8.954 20-20v-162.14c15.099-13.113 24.66-32.435 24.66-54.003z" fill="#2626bc" opacity=".1"/><g fill="#fff"><path d="M432.187 389.736H79.812c-11.046 0-20-8.954-20-20v-221.41c0-11.046 8.954-20 20-20h352.375c11.046 0 20 8.954 20 20v221.41c0 11.046-8.954 20-20 20z"/><path d="M262.092 223.711l190.096 146.025c0 11.046-8.954 20-20 20H79.812c-11.046 0-20-8.954-20-20l190.096-146.025a10 10 0 0112.184 0z"/><path d="M249.908 294.352L59.812 148.326c0-11.046 8.954-20 20-20h352.375c11.046 0 20 8.954 20 20L262.092 294.352a10.002 10.002 0 01-12.184 0z"/></g><path d="M370.947 363.125h-32.134a5 5 0 01-5-5v-22.154a5 5 0 015-5h32.134a5 5 0 015 5v22.154a5 5 0 01-5 5z" fill="#6583fe"/><path d="M311.871 342.743h-27.833a5 5 0 110-10h27.833a5 5 0 110 10zM311.871 363.125h-97.833a5 5 0 110-10h97.833a5 5 0 110 10z" fill="#2626bc"/><g><circle cx="405.33" cy="153.593" fill="#6583fe" transform="rotate(-80.8 405.29 153.649)" r="71.517"/><path d="M405.33 230.11c42.191 0 76.517-34.325 76.517-76.517s-34.325-76.517-76.517-76.517-76.517 34.325-76.517 76.517c0 24.544 11.629 46.41 29.653 60.421l-99.42 76.372a5.004 5.004 0 01-6.092 0L64.992 146c1.121-7.17 7.341-12.674 14.82-12.674h229.366a5 5 0 100-10H79.812c-13.785 0-25 11.215-25 25v221.41c0 13.785 11.215 25 25 25h352.375c13.785 0 25-11.215 25-25v-132.14a5 5 0 10-10 0V359.59L316.28 259.031l50.94-39.13a76.017 76.017 0 0038.11 10.209zm-209.61 28.921L64.812 359.59V158.472zm251.27 113.018c-1.118 7.174-7.32 12.687-14.803 12.687H79.812c-7.483 0-13.685-5.513-14.803-12.687l138.919-106.713 42.934 32.98c2.69 2.066 5.914 3.1 9.138 3.1s6.447-1.033 9.138-3.1l42.934-32.981zM338.813 153.593c0-36.677 29.839-66.517 66.517-66.517s66.517 29.839 66.517 66.517c0 36.677-29.839 66.517-66.517 66.517s-66.517-29.84-66.517-66.517z" fill="#2626bc"/></g><path d="M374.114 129.204l10.206 24.389-10.206 24.389c-1.733 4.142 2.448 8.292 6.577 6.528l61.619-26.319c4.048-1.729 4.048-7.467 0-9.196l-61.619-26.319c-4.129-1.764-8.31 2.386-6.577 6.528z" fill="#fff"/><g fill="#6583fe"><path d="M330.828 81.671a14.45 14.45 0 01-10.253-4.24c-5.654-5.654-5.654-14.853 0-20.506 5.651-5.652 14.852-5.654 20.505 0 5.654 5.654 5.654 14.853 0 20.506a14.45 14.45 0 01-10.252 4.24zm0-18.991a4.487 4.487 0 00-3.183 1.316 4.506 4.506 0 000 6.364 4.505 4.505 0 006.364 0 4.506 4.506 0 000-6.364 4.487 4.487 0 00-3.181-1.316zM218.538 459.315a14.457 14.457 0 01-10.253-4.24c-5.654-5.654-5.654-14.853 0-20.506 5.652-5.653 14.854-5.653 20.506 0 5.654 5.654 5.654 14.853 0 20.506a14.453 14.453 0 01-10.253 4.24zm0-18.991a4.487 4.487 0 00-3.183 1.316 4.506 4.506 0 000 6.364 4.506 4.506 0 006.365 0 4.506 4.506 0 000-6.364 4.487 4.487 0 00-3.182-1.316zM294.78 94.547a4.983 4.983 0 01-3.535-1.464l-5.965-5.964-5.965 5.964a5 5 0 01-7.07-7.071l9.5-9.5a5 5 0 017.07 0l9.5 9.5a5 5 0 01-3.535 8.535zM439.746 440.322a4.983 4.983 0 01-3.535-1.464l-5.965-5.964-5.965 5.964a5 5 0 01-7.07-7.071l9.5-9.5a5 5 0 017.07 0l9.5 9.5a5 5 0 01-3.535 8.535zM178.884 445.072a4.983 4.983 0 01-3.535-1.464l-5.965-5.964-5.965 5.964a5 5 0 01-7.07-7.071l9.5-9.5a5 5 0 017.07 0l9.5 9.5a5 5 0 01-3.535 8.535z"/></g></svg>